<mxfile host="app.diagrams.net" modified="2024-01-24T09:38:58.579Z" agent="Mozilla/5.0 (Macintosh; Intel Mac OS X 10_15_7) AppleWebKit/605.1.15 (KHTML, like Gecko) Version/16.4 Safari/605.1.15" version="22.1.20" etag="k4WD_mRaBNoX2HnQeg7O" type="github">
  <diagram name="第 1 页" id="UzdRfNrcExQxgJvwQbmM">
    <mxGraphModel>
      <root>
        <mxCell id="0" />
        <mxCell id="1" parent="0" />
      </root>
    </mxGraphModel>
  </diagram>
</mxfile>
